<?xml version="1.0" encoding="UTF-8" standalone="no"?>
<!-- Created with Inkscape (http://www.inkscape.org/) -->

<svg
   xmlns:dc="http://purl.org/dc/elements/1.1/"
   xmlns:cc="http://creativecommons.org/ns#"
   xmlns:rdf="http://www.w3.org/1999/02/22-rdf-syntax-ns#"
   xmlns:svg="http://www.w3.org/2000/svg"
   xmlns="http://www.w3.org/2000/svg"
   xmlns:xlink="http://www.w3.org/1999/xlink"
   xmlns:sodipodi="http://sodipodi.sourceforge.net/DTD/sodipodi-0.dtd"
   xmlns:inkscape="http://www.inkscape.org/namespaces/inkscape"
   width="266mm"
   height="266mm"
   viewBox="0 0 266 266"
   version="1.1"
   id="svg73"
   inkscape:version="0.92.4 5da689c313, 2019-01-14"
   sodipodi:docname="rarity_ur.svg">
  <defs
     id="defs67">
    <linearGradient
       inkscape:collect="always"
       xlink:href="#linearGradient1435"
       id="linearGradient1413"
       gradientUnits="userSpaceOnUse"
       x1="0"
       y1="0.13348989"
       x2="10"
       y2="9.8671999"
       gradientTransform="translate(8.2853553,-19.64431)" />
    <linearGradient
       id="linearGradient1435"
       inkscape:collect="always">
      <stop
         id="stop1425"
         offset="0"
         style="stop-color:#ff5151;stop-opacity:1" />
      <stop
         style="stop-color:#abff51;stop-opacity:1"
         offset="0.25"
         id="stop1427" />
      <stop
         style="stop-color:#51fffd;stop-opacity:1"
         offset="0.5"
         id="stop1429" />
      <stop
         id="stop1431"
         offset="0.75"
         style="stop-color:#a751ff;stop-opacity:0.96078432" />
      <stop
         id="stop1433"
         offset="1"
         style="stop-color:#ff5151;stop-opacity:1" />
    </linearGradient>
  </defs>
  <sodipodi:namedview
     id="base"
     pagecolor="#ffffff"
     bordercolor="#666666"
     borderopacity="1.0"
     inkscape:pageopacity="0.0"
     inkscape:pageshadow="2"
     inkscape:zoom="0.35"
     inkscape:cx="411.42857"
     inkscape:cy="560"
     inkscape:document-units="mm"
     inkscape:current-layer="layer1"
     showgrid="false"
     units="mm"
     inkscape:window-width="1130"
     inkscape:window-height="1054"
     inkscape:window-x="0"
     inkscape:window-y="24"
     inkscape:window-maximized="0" />
  <metadata
     id="metadata70">
    <rdf:RDF>
      <cc:Work
         rdf:about="">
        <dc:format>image/svg+xml</dc:format>
        <dc:type
           rdf:resource="http://purl.org/dc/dcmitype/StillImage" />
        <dc:title></dc:title>
      </cc:Work>
    </rdf:RDF>
  </metadata>
  <g
     inkscape:label="レイヤー 1"
     inkscape:groupmode="layer"
     id="layer1"
     transform="translate(0,-31)">
    <g
       transform="matrix(21.876324,0,0,21.876324,-159.69388,484.43664)"
       style="display:inline"
       id="g1439">
      <path
         inkscape:connector-curvature="0"
         id="path46-4"
         d="m 15.609599,-19.64428 c -0.724642,0 -1.449361,0.0671 -2.174003,0.20052 v 9.6666503 h 1.630603 V -13.1775 h 0.376418 c 0.156078,10e-6 0.281251,0.0671 0.376011,0.20052 0.09476,0.13333 0.173028,0.35557 0.234344,0.66667 l 0.518085,2.5332003 h 1.714298 L 17.683167,-12.44377 c -0.100341,-0.43556 -0.206144,-0.76888 -0.317629,-1 -0.111478,-0.24 -0.250837,-0.43548 -0.418061,-0.5866 v -0.0267 c 0.345597,-0.20445 0.626896,-0.5467 0.844288,-1.0267 0.217391,-0.48 0.326202,-1.00055 0.326202,-1.56055 0,-1.99999 -0.836123,-2.99999 -2.508368,-2.99999 z m -7.3242437,0.13346 v 6.13345 c 0,1.24444 0.206031,2.1779 0.618518,2.80012 0.412489,0.62223 1.014627,0.9329399 1.8061577,0.9329399 0.791528,0 1.393669,-0.3107099 1.806156,-0.9329399 0.412488,-0.62222 0.618519,-1.55568 0.618519,-2.80012 v -6.13345 H 11.4792 v 6.33332 c 0,0.51555 -0.0585,0.88042 -0.175555,1.09375 -0.117059,0.20445 -0.309316,0.30665 -0.576875,0.30665 -0.26756,0 -0.45982,-0.10218 -0.576877,-0.30665 -0.117059,-0.21333 -0.1755517,-0.5782 -0.1755517,-1.09375 v -6.33332 z m 7.2405487,1.86653 c 0.613156,0 0.919818,0.42249 0.919818,1.26693 0,0.39111 -0.08344,0.70248 -0.250674,0.93359 -0.161651,0.22223 -0.384862,0.33333 -0.669144,0.33333 h -0.459705 v -2.46679 c 0.128207,-0.0445 0.281333,-0.067 0.459705,-0.067 z"
         style="font-style:normal;font-variant:normal;font-weight:900;font-stretch:normal;font-size:10.58333302px;line-height:1.25;font-family:'M+ 1c';-inkscape-font-specification:'M+ 1c Heavy';letter-spacing:-1.05833328px;word-spacing:0px;display:inline;fill:#000000;fill-opacity:1;stroke:#0a0000;stroke-width:1.5;stroke-miterlimit:4;stroke-dasharray:none;stroke-opacity:1" />
      <path
         inkscape:connector-curvature="0"
         id="path46"
         d="m 15.609599,-19.64428 c -0.724642,0 -1.449361,0.0671 -2.174003,0.20052 v 9.6666501 h 1.630603 V -13.1775 h 0.376418 c 0.156078,10e-6 0.281251,0.0671 0.376011,0.20052 0.09476,0.13333 0.173028,0.35557 0.234344,0.66667 l 0.518085,2.5332001 h 1.714298 L 17.683167,-12.44377 c -0.100341,-0.43556 -0.206144,-0.76888 -0.317629,-1 -0.111478,-0.24 -0.250837,-0.43548 -0.418061,-0.5866 v -0.0267 c 0.345596,-0.20445 0.626895,-0.5467 0.844287,-1.0267 0.217392,-0.48 0.326203,-1.00055 0.326203,-1.56055 0,-1.99999 -0.836123,-2.99999 -2.508368,-2.99999 z m -7.3242437,0.13346 v 6.13345 c 0,1.24444 0.206031,2.1779 0.618518,2.80012 0.412489,0.62223 1.014627,0.9329399 1.8061577,0.9329399 0.791528,0 1.393669,-0.3107099 1.806156,-0.9329399 0.412488,-0.62222 0.618519,-1.55568 0.618519,-2.80012 v -6.13345 H 11.4792 v 6.33332 c 0,0.51555 -0.0585,0.88042 -0.175555,1.09375 -0.117059,0.20445 -0.309316,0.30665 -0.576875,0.30665 -0.26756,0 -0.45982,-0.10218 -0.576877,-0.30665 -0.117059,-0.21333 -0.1755517,-0.5782 -0.1755517,-1.09375 v -6.33332 z m 7.2405487,1.86653 c 0.613156,0 0.919818,0.42249 0.919818,1.26693 0,0.39111 -0.08344,0.70248 -0.250674,0.93359 -0.161651,0.22223 -0.384862,0.33333 -0.669144,0.33333 h -0.459705 v -2.46679 c 0.128207,-0.0445 0.281333,-0.067 0.459705,-0.067 z"
         style="font-style:normal;font-variant:normal;font-weight:900;font-stretch:normal;font-size:10.58333302px;line-height:1.25;font-family:'M+ 1c';-inkscape-font-specification:'M+ 1c Heavy';letter-spacing:-1.05833328px;word-spacing:0px;fill:url(#linearGradient1413);fill-opacity:1;stroke:none;stroke-width:0.26396355" />
    </g>
  </g>
</svg>
