<?xml version="1.0" encoding="UTF-8" standalone="no"?>
<!-- Created with Inkscape (http://www.inkscape.org/) -->

<svg
   xmlns:dc="http://purl.org/dc/elements/1.1/"
   xmlns:cc="http://creativecommons.org/ns#"
   xmlns:rdf="http://www.w3.org/1999/02/22-rdf-syntax-ns#"
   xmlns:svg="http://www.w3.org/2000/svg"
   xmlns="http://www.w3.org/2000/svg"
   xmlns:sodipodi="http://sodipodi.sourceforge.net/DTD/sodipodi-0.dtd"
   xmlns:inkscape="http://www.inkscape.org/namespaces/inkscape"
   width="266mm"
   height="266mm"
   viewBox="0 0 266 266"
   version="1.1"
   id="svg73"
   inkscape:version="0.92.4 5da689c313, 2019-01-14"
   sodipodi:docname="rarity_question.svg">
  <defs
     id="defs67" />
  <sodipodi:namedview
     id="base"
     pagecolor="#ffffff"
     bordercolor="#666666"
     borderopacity="1.0"
     inkscape:pageopacity="0.0"
     inkscape:pageshadow="2"
     inkscape:zoom="0.35"
     inkscape:cx="411.42857"
     inkscape:cy="560"
     inkscape:document-units="mm"
     inkscape:current-layer="layer1"
     showgrid="false"
     units="mm"
     inkscape:window-width="1130"
     inkscape:window-height="1054"
     inkscape:window-x="0"
     inkscape:window-y="24"
     inkscape:window-maximized="0" />
  <metadata
     id="metadata70">
    <rdf:RDF>
      <cc:Work
         rdf:about="">
        <dc:format>image/svg+xml</dc:format>
        <dc:type
           rdf:resource="http://purl.org/dc/dcmitype/StillImage" />
        <dc:title></dc:title>
      </cc:Work>
    </rdf:RDF>
  </metadata>
  <g
     inkscape:label="レイヤー 1"
     inkscape:groupmode="layer"
     id="layer1"
     transform="translate(0,-31)">
    <g
       style="display:inline"
       id="g1421"
       transform="matrix(21.876324,0,0,21.876324,23.618358,54.691349)">
      <path
         d="M 5.466696,6.73332 H 3.066545 q 0,-0.4933201 0.146675,-0.9066601 0.146677,-0.42666 0.453363,-0.78666 0.32002,-0.36 0.5333671,-0.5466699 Q 4.4132961,4.3066699 4.813321,3.9866698 5.1333411,3.73333 5.2933511,3.5999998 5.453361,3.4533299 5.5867041,3.25333 q 0.146675,-0.2000001 0.146675,-0.3866501 0,-0.73334 -1.2000751,-0.73334 -1.360086,0 -3.066859,0.53334 V 0.46667991 q 1.733442,-0.39999999 3.4668841,-0.39999999 1.693441,0 2.640166,0.66666002 0.9600599,0.66666996 0.9600599,1.73333996 0,0.5066501 -0.133341,0.9199901 -0.133341,0.4 -0.4266938,0.72 Q 7.680169,4.4266701 7.4534869,4.6133299 7.240141,4.78666 6.8267822,5.0666598 6.3734191,5.3733299 6.1734071,5.5333301 5.973394,5.69333 5.7333791,6.02666 5.5066992,6.3600001 5.466696,6.73332 Z M 2.933203,9.9333202 V 7.7999901 h 2.6668351 v 2.1333301 z"
         style="font-style:normal;font-variant:normal;font-weight:900;font-stretch:normal;font-size:10.58333302px;line-height:1.25;font-family:'M+ 1c';-inkscape-font-specification:'M+ 1c Heavy';letter-spacing:-1.05833328px;word-spacing:0px;display:inline;fill:#800000;fill-opacity:1;stroke:#0a0000;stroke-width:1.5;stroke-miterlimit:4;stroke-dasharray:none;stroke-opacity:1"
         id="path52-2"
         inkscape:connector-curvature="0" />
      <path
         d="M 5.466696,6.73332 H 3.066545 q 0,-0.4933201 0.146675,-0.9066601 0.146677,-0.42666 0.453363,-0.78666 0.32002,-0.36 0.5333671,-0.5466699 Q 4.4132961,4.3066699 4.813321,3.9866698 5.1333411,3.73333 5.2933511,3.5999998 5.453361,3.4533299 5.5867041,3.25333 q 0.146675,-0.2000001 0.146675,-0.3866501 0,-0.73334 -1.2000751,-0.73334 -1.360086,0 -3.066859,0.53334 V 0.46667991 q 1.733442,-0.39999999 3.4668841,-0.39999999 1.693441,0 2.640166,0.66666002 0.9600599,0.66666996 0.9600599,1.73333996 0,0.5066501 -0.133341,0.9199901 -0.133341,0.4 -0.4266938,0.72 Q 7.680169,4.4266701 7.4534869,4.6133299 7.240141,4.78666 6.8267822,5.0666598 6.3734191,5.3733299 6.1734071,5.5333301 5.973394,5.69333 5.7333791,6.02666 5.5066992,6.3600001 5.466696,6.73332 Z m -2.533493,3.2 V 7.7999901 H 5.6000381 V 9.93332 Z"
         style="font-style:normal;font-variant:normal;font-weight:900;font-stretch:normal;font-size:10.58333302px;line-height:1.25;font-family:'M+ 1c';-inkscape-font-specification:'M+ 1c Heavy';letter-spacing:-1.05833328px;word-spacing:0px;fill:#ffffff;fill-opacity:1;stroke:none;stroke-width:0.33334339"
         id="path52"
         inkscape:connector-curvature="0" />
    </g>
  </g>
</svg>
