<?xml version="1.0" encoding="UTF-8" standalone="no"?>
<!-- Created with Inkscape (http://www.inkscape.org/) -->

<svg
   xmlns:dc="http://purl.org/dc/elements/1.1/"
   xmlns:cc="http://creativecommons.org/ns#"
   xmlns:rdf="http://www.w3.org/1999/02/22-rdf-syntax-ns#"
   xmlns:svg="http://www.w3.org/2000/svg"
   xmlns="http://www.w3.org/2000/svg"
   xmlns:sodipodi="http://sodipodi.sourceforge.net/DTD/sodipodi-0.dtd"
   xmlns:inkscape="http://www.inkscape.org/namespaces/inkscape"
   width="266mm"
   height="266mm"
   viewBox="0 0 266 266"
   version="1.1"
   id="svg73"
   inkscape:version="0.92.4 5da689c313, 2019-01-14"
   sodipodi:docname="rarity_r.svg">
  <defs
     id="defs67" />
  <sodipodi:namedview
     id="base"
     pagecolor="#ffffff"
     bordercolor="#666666"
     borderopacity="1.0"
     inkscape:pageopacity="0.0"
     inkscape:pageshadow="2"
     inkscape:zoom="0.35"
     inkscape:cx="411.42857"
     inkscape:cy="560"
     inkscape:document-units="mm"
     inkscape:current-layer="layer1"
     showgrid="false"
     units="mm"
     inkscape:window-width="1130"
     inkscape:window-height="1054"
     inkscape:window-x="0"
     inkscape:window-y="24"
     inkscape:window-maximized="0" />
  <metadata
     id="metadata70">
    <rdf:RDF>
      <cc:Work
         rdf:about="">
        <dc:format>image/svg+xml</dc:format>
        <dc:type
           rdf:resource="http://purl.org/dc/dcmitype/StillImage" />
        <dc:title></dc:title>
      </cc:Work>
    </rdf:RDF>
  </metadata>
  <g
     inkscape:label="レイヤー 1"
     inkscape:groupmode="layer"
     id="layer1"
     transform="translate(0,-31)">
    <g
       style="display:inline"
       id="g1395"
       transform="matrix(21.876324,0,0,21.876324,20.149407,54.691349)">
      <path
         d="m 3.733253,6.5333101 v 3.39999 H 1.133089 V 0.26667013 q 1.733442,-0.2 3.4668852,-0.2 4.0002518,0 4.0002518,2.99998997 0,0.84 -0.520033,1.56 -0.520033,0.7200001 -1.3467509,1.02665 v 0.0267 q 0.4000249,0.2266704 0.666708,0.5866705 0.2666841,0.3466599 0.506699,1.0000001 L 8.866909,9.9333303 H 6.1334042 L 5.306685,7.4000102 Q 5.160009,6.9333402 4.933329,6.7333401 4.706647,6.5333402 4.3332911,6.5333402 Z m 0,-1.93332 h 0.7333791 q 0.6800429,0 1.0667349,-0.33333 0.4000251,-0.34667 0.4000251,-0.9333399 0,-1.2666501 -1.46676,-1.2666501 -0.4266941,0 -0.7333791,0.0666 z"
         style="font-style:normal;font-variant:normal;font-weight:900;font-stretch:normal;font-size:10.58333302px;line-height:1.25;font-family:'M+ 1c';-inkscape-font-specification:'M+ 1c Heavy';letter-spacing:-1.05833328px;word-spacing:0px;display:inline;fill:#000000;fill-opacity:1;stroke:#000000;stroke-width:1.5;stroke-miterlimit:4;stroke-dasharray:none;stroke-opacity:1"
         id="path30-3"
         inkscape:connector-curvature="0" />
      <path
         d="m 3.733253,6.5333101 v 3.39999 H 1.133089 V 0.26667013 q 1.733442,-0.2 3.4668852,-0.2 4.0002518,0 4.0002518,2.99998997 0,0.84 -0.520033,1.56 -0.520033,0.7200001 -1.3467509,1.02665 v 0.0267 q 0.4000249,0.2266702 0.666708,0.5866702 0.2666841,0.34666 0.506699,1.0000001 L 8.866909,9.9333303 H 6.1334042 L 5.306685,7.4000102 Q 5.160009,6.9333402 4.933329,6.7333401 4.706647,6.5333402 4.3332911,6.5333402 Z m 0,-1.93332 h 0.7333791 q 0.6800429,0 1.0667349,-0.33333 0.4000251,-0.34667 0.4000251,-0.9333399 0,-1.2666501 -1.46676,-1.2666501 -0.4266941,0 -0.7333791,0.0666 z"
         style="font-style:normal;font-variant:normal;font-weight:900;font-stretch:normal;font-size:10.58333302px;line-height:1.25;font-family:'M+ 1c';-inkscape-font-specification:'M+ 1c Heavy';letter-spacing:-1.05833328px;word-spacing:0px;fill:#ff5555;fill-opacity:1;stroke:none;stroke-width:0.33334339"
         id="path30"
         inkscape:connector-curvature="0" />
    </g>
  </g>
</svg>
