<?xml version="1.0" encoding="UTF-8" standalone="no"?>
<!-- Created with Inkscape (http://www.inkscape.org/) -->

<svg
   xmlns:dc="http://purl.org/dc/elements/1.1/"
   xmlns:cc="http://creativecommons.org/ns#"
   xmlns:rdf="http://www.w3.org/1999/02/22-rdf-syntax-ns#"
   xmlns:svg="http://www.w3.org/2000/svg"
   xmlns="http://www.w3.org/2000/svg"
   xmlns:xlink="http://www.w3.org/1999/xlink"
   xmlns:sodipodi="http://sodipodi.sourceforge.net/DTD/sodipodi-0.dtd"
   xmlns:inkscape="http://www.inkscape.org/namespaces/inkscape"
   width="266mm"
   height="266mm"
   viewBox="0 0 266 266"
   version="1.1"
   id="svg73"
   inkscape:version="0.92.4 5da689c313, 2019-01-14"
   sodipodi:docname="rarity_ssr.svg">
  <defs
     id="defs67">
    <linearGradient
       inkscape:collect="always"
       xlink:href="#linearGradient1314"
       id="linearGradient1306"
       x1="0.03340869"
       y1="0.088927187"
       x2="10"
       y2="9.8665199"
       gradientUnits="userSpaceOnUse" />
    <linearGradient
       inkscape:collect="always"
       id="linearGradient1314">
      <stop
         style="stop-color:#8a8575;stop-opacity:1"
         offset="0"
         id="stop1308" />
      <stop
         id="stop1310"
         offset="0.5"
         style="stop-color:#f6ffff;stop-opacity:1" />
      <stop
         style="stop-color:#84827b;stop-opacity:1"
         offset="1"
         id="stop1312" />
    </linearGradient>
  </defs>
  <sodipodi:namedview
     id="base"
     pagecolor="#ffffff"
     bordercolor="#666666"
     borderopacity="1.0"
     inkscape:pageopacity="0.0"
     inkscape:pageshadow="2"
     inkscape:zoom="0.35"
     inkscape:cx="411.42857"
     inkscape:cy="560"
     inkscape:document-units="mm"
     inkscape:current-layer="layer1"
     showgrid="false"
     units="mm"
     inkscape:window-width="1130"
     inkscape:window-height="1054"
     inkscape:window-x="0"
     inkscape:window-y="24"
     inkscape:window-maximized="0" />
  <metadata
     id="metadata70">
    <rdf:RDF>
      <cc:Work
         rdf:about="">
        <dc:format>image/svg+xml</dc:format>
        <dc:type
           rdf:resource="http://purl.org/dc/dcmitype/StillImage" />
        <dc:title></dc:title>
      </cc:Work>
    </rdf:RDF>
  </metadata>
  <g
     inkscape:label="レイヤー 1"
     inkscape:groupmode="layer"
     id="layer1"
     transform="translate(0,-31)">
    <g
       style="display:inline"
       id="g1403"
       transform="matrix(21.876324,0,0,21.876324,22.155019,54.691251)">
      <path
         inkscape:connector-curvature="0"
         id="path36-8"
         d="M 1.679941,9.9458333e-6 C 1.134213,9.9458333e-6 0.71689301,0.24897996 0.427741,0.74675998 0.14266,1.2445299 0,1.9290399 0,2.80014 0,3.6090398 0.118155,4.2887499 0.35436299,4.83985 0.594644,5.3820699 0.98556503,5.83544 1.527219,6.19988 1.677903,6.3065899 1.78191,6.42657 1.838925,6.5599099 c 0.05701,0.1333302 0.08561,0.32467 0.08561,0.5735601 0,0.5333299 -0.183505,0.8001299 -0.550038,0.8001299 -0.44391199,0 -0.861232,-0.2887599 -1.2522,-0.86653 V 9.2669401 C 0.492902,9.75582 0.930646,10 1.435646,10 2.596332,10 3.1767351,9.0226201 3.1767351,7.0670699 c 0,-0.84445 -0.1118811,-1.52004 -0.3358692,-2.0266898 C 2.616873,4.5337199 2.219677,4.09818 1.649517,3.7337498 1.376653,3.5559599 1.240269,3.2445998 1.240269,2.8001599 c 0,-0.50667 0.166869,-0.75977 0.500821,-0.75977 0.42762,0 0.865363,0.22222 1.3133481,0.6666599 V 0.53322995 C 2.6756881,0.17767995 2.217522,2.9945833e-5 1.679941,2.9945833e-5 Z m 3.1519769,0 C 4.2861899,9.9458333e-6 3.8688701,0.24897996 3.579717,0.74675998 3.2946351,1.2445299 3.151977,1.9290399 3.151977,2.80014 c 0,0.8088998 0.118155,1.4886099 0.354362,2.03971 0.2402819,0.5422199 0.6312019,0.99559 1.1728561,1.36003 0.150685,0.1067099 0.2546919,0.22669 0.311707,0.3600299 0.05701,0.1333302 0.08561,0.32467 0.08561,0.5735601 0,0.5333299 -0.1835039,0.8001299 -0.550037,0.8001299 -0.4439119,0 -0.8612323,-0.2887599 -1.2522002,-0.86653 V 9.2669401 C 3.6448802,9.75582 4.0826222,10 4.5876232,10 5.74831,10 6.3287122,9.0226201 6.3287122,7.0670699 c 0,-0.84445 -0.1118812,-1.52004 -0.3358689,-2.0266898 C 5.7688501,4.5337199 5.371655,4.09818 4.801494,3.7337498 4.52863,3.5559599 4.3922461,3.2445998 4.3922461,2.8001599 c 0,-0.50667 0.166869,-0.75977 0.500821,-0.75977 0.4276209,0 0.865364,0.22222 1.3133491,0.6666599 V 0.53322995 C 5.8276659,0.17767995 5.3694999,2.9945833e-5 4.831919,2.9945833e-5 Z m 3.2134223,0 c -0.529436,0 -1.058931,0.066500004167 -1.5883681,0.1998800141667 V 9.86652 h 1.19135 V 6.4667898 h 0.2747211 c 0.1140351,0 0.2057849,0.0665 0.2750179,0.19988 C 8.2672911,6.8 8.3241801,7.0222201 8.368978,7.3333201 L 8.7478002,9.86652 H 10 L 9.560329,7.1998701 C 9.4870291,6.7643199 9.4097152,6.4309899 9.328263,6.19987 9.2468131,5.9598699 9.1449972,5.7643899 9.0228182,5.61329 V 5.58659 C 9.2753193,5.38214 9.4808434,5.0398999 9.639672,4.5598999 9.7985032,4.0799 9.8780023,3.5599998 9.8780023,2.9999999 9.8780023,1.0000099 9.2671151,9.9458333e-6 8.0453402,9.9458333e-6 Z M 7.9842,2.0000099 c 0.4479851,0 0.6720361,0.42247 0.6720361,1.26693 0,0.3910999 -0.06127,0.7018401 -0.1834451,0.9329402 C 8.354686,4.4220999 8.1919011,4.5332 7.9842,4.5332 H 7.6483311 V 2.0670699 c 0.09368,-0.0445 0.2055471,-0.067 0.3358689,-0.067 z"
         style="font-style:normal;font-variant:normal;font-weight:900;font-stretch:normal;font-size:10.58333302px;line-height:1.25;font-family:'M+ 1c';-inkscape-font-specification:'M+ 1c Heavy';letter-spacing:-1.05833328px;word-spacing:0px;display:inline;fill:#808080;fill-opacity:1;stroke:#000000;stroke-width:1.5;stroke-miterlimit:4;stroke-dasharray:none;stroke-opacity:1" />
      <path
         inkscape:connector-curvature="0"
         id="path36"
         d="M 1.679941,9.9458333e-6 C 1.134213,9.9458333e-6 0.71689301,0.24897995 0.427741,0.74675995 0.14266,1.2445299 0,1.9290399 0,2.80014 0,3.6090398 0.118155,4.2887499 0.35436299,4.83985 0.594644,5.3820699 0.98556501,5.83544 1.527219,6.19988 1.677903,6.3065899 1.78191,6.42657 1.838925,6.5599099 c 0.05701,0.1333302 0.08561,0.32467 0.08561,0.5735601 0,0.5333299 -0.183505,0.8001299 -0.550038,0.8001299 -0.44391199,0 -0.861232,-0.2887599 -1.2522,-0.86653 V 9.2669401 C 0.492902,9.75582 0.930646,10 1.435646,10 2.596332,10 3.1767351,9.0226201 3.1767351,7.0670699 c 0,-0.84445 -0.1118811,-1.52004 -0.3358692,-2.0266898 C 2.616873,4.5337199 2.219677,4.09818 1.649517,3.7337498 1.376653,3.5559599 1.240269,3.2445998 1.240269,2.8001599 c 0,-0.50667 0.166869,-0.75977 0.500821,-0.75977 0.42762,0 0.865363,0.22222 1.3133481,0.6666599 V 0.53322995 C 2.6756881,0.17767995 2.217522,2.9945833e-5 1.679941,2.9945833e-5 Z m 3.1519769,0 C 4.2861899,9.9458333e-6 3.8688701,0.24897995 3.579717,0.74675995 3.2946351,1.2445299 3.151977,1.9290399 3.151977,2.80014 c 0,0.8088998 0.118155,1.4886099 0.354362,2.03971 0.2402819,0.5422199 0.6312019,0.99559 1.1728561,1.36003 0.150685,0.1067099 0.2546919,0.22669 0.311707,0.3600299 0.05701,0.1333302 0.08561,0.32467 0.08561,0.5735601 0,0.5333299 -0.1835039,0.8001299 -0.550037,0.8001299 -0.4439118,0 -0.861232,-0.2887599 -1.2521999,-0.86653 V 9.2669401 C 3.6448803,9.75582 4.0826223,10 4.5876232,10 5.7483101,10 6.3287123,9.0226201 6.3287123,7.0670699 c 0,-0.84445 -0.1118812,-1.52004 -0.335869,-2.0266898 C 5.7688501,4.5337199 5.371655,4.09818 4.801494,3.7337498 4.52863,3.5559599 4.3922461,3.2445998 4.3922461,2.8001599 c 0,-0.50667 0.166869,-0.75977 0.500821,-0.75977 0.4276209,0 0.865364,0.22222 1.3133491,0.6666599 V 0.53322995 C 5.8276659,0.17767995 5.3694999,2.9945833e-5 4.831919,2.9945833e-5 Z m 3.2134223,0 c -0.529436,0 -1.058931,0.066500004167 -1.5883681,0.1998800041667 V 9.86652 h 1.19135 V 6.4667898 h 0.2747211 c 0.1140349,0 0.2057849,0.0665 0.2750179,0.19988 C 8.2672911,6.8 8.3241801,7.0222201 8.368978,7.3333201 L 8.7478002,9.86652 H 10 L 9.560329,7.1998701 C 9.4870291,6.7643199 9.4097152,6.4309899 9.328263,6.19987 9.2468131,5.9598699 9.1449972,5.7643899 9.0228182,5.61329 V 5.58659 C 9.2753191,5.38214 9.4808432,5.0398999 9.639672,4.5598999 9.7985032,4.0799 9.8780021,3.5599998 9.8780021,2.9999999 9.8780021,1.0000099 9.2671151,9.9458333e-6 8.0453402,9.9458333e-6 Z M 7.9842,2.0000099 c 0.4479851,0 0.6720361,0.42247 0.6720361,1.26693 0,0.3910999 -0.06127,0.7018401 -0.1834451,0.9329402 C 8.354686,4.4220999 8.1919011,4.5332 7.9842,4.5332 H 7.6483311 V 2.0670699 c 0.09368,-0.0445 0.2055471,-0.067 0.3358689,-0.067 z"
         style="font-style:normal;font-variant:normal;font-weight:900;font-stretch:normal;font-size:10.58333302px;line-height:1.25;font-family:'M+ 1c';-inkscape-font-specification:'M+ 1c Heavy';letter-spacing:-1.05833328px;word-spacing:0px;fill:url(#linearGradient1306);fill-opacity:1;stroke:none;stroke-width:0.22562614" />
    </g>
  </g>
</svg>
