<?xml version="1.0" encoding="UTF-8" standalone="no"?>
<!-- Created with Inkscape (http://www.inkscape.org/) -->

<svg
   xmlns:dc="http://purl.org/dc/elements/1.1/"
   xmlns:cc="http://creativecommons.org/ns#"
   xmlns:rdf="http://www.w3.org/1999/02/22-rdf-syntax-ns#"
   xmlns:svg="http://www.w3.org/2000/svg"
   xmlns="http://www.w3.org/2000/svg"
   xmlns:sodipodi="http://sodipodi.sourceforge.net/DTD/sodipodi-0.dtd"
   xmlns:inkscape="http://www.inkscape.org/namespaces/inkscape"
   width="73.849579mm"
   height="22.267706mm"
   viewBox="0 0 73.849579 22.267706"
   version="1.1"
   id="svg8"
   inkscape:version="0.92.4 5da689c313, 2019-01-14"
   sodipodi:docname="logo.svg">
  <defs
     id="defs2" />
  <sodipodi:namedview
     id="base"
     pagecolor="#ffffff"
     bordercolor="#666666"
     borderopacity="1.0"
     inkscape:pageopacity="0.0"
     inkscape:pageshadow="2"
     inkscape:zoom="2.8"
     inkscape:cx="119.09091"
     inkscape:cy="20.194371"
     inkscape:document-units="mm"
     inkscape:current-layer="layer1"
     showgrid="false"
     fit-margin-top="0"
     fit-margin-left="0"
     fit-margin-right="0"
     fit-margin-bottom="0"
     inkscape:window-width="1918"
     inkscape:window-height="1078"
     inkscape:window-x="5760"
     inkscape:window-y="0"
     inkscape:window-maximized="0" />
  <metadata
     id="metadata5">
    <rdf:RDF>
      <cc:Work
         rdf:about="">
        <dc:format>image/svg+xml</dc:format>
        <dc:type
           rdf:resource="http://purl.org/dc/dcmitype/StillImage" />
        <dc:title></dc:title>
      </cc:Work>
    </rdf:RDF>
  </metadata>
  <g
     inkscape:label="レイヤー 1"
     inkscape:groupmode="layer"
     id="layer1"
     transform="translate(-41.400273,-114.80645)">
    <g
       id="g1482"
       transform="matrix(0.62626062,0,0,0.62626062,16.855032,44.108153)">
      <path
         inkscape:connector-curvature="0"
         id="path4585"
         d="m 40.568319,129.85087 10.907043,5.17559 -9.627386,5.48334"
         style="fill:none;stroke:#000000;stroke-width:2.71501064;stroke-linecap:round;stroke-linejoin:round;stroke-miterlimit:4;stroke-dasharray:none;stroke-opacity:1" />
      <path
         inkscape:connector-curvature="0"
         id="path4587"
         d="m 69.566507,129.46149 -9.7335,5.51611 11.656881,3.08129"
         style="fill:none;stroke:#000000;stroke-width:2.71501064;stroke-linecap:round;stroke-linejoin:round;stroke-miterlimit:4;stroke-dasharray:none;stroke-opacity:1" />
      <path
         inkscape:connector-curvature="0"
         id="path4589"
         d="m 53.724104,127.14409 0.483223,2.45161"
         style="fill:none;stroke:#000000;stroke-width:2.71501064;stroke-linecap:round;stroke-linejoin:round;stroke-miterlimit:4;stroke-dasharray:none;stroke-opacity:1" />
      <path
         inkscape:connector-curvature="0"
         id="path4591"
         d="m 57.671486,127.07942 -0.138065,2.2473"
         style="fill:none;stroke:#000000;stroke-width:2.71501064;stroke-linecap:round;stroke-linejoin:round;stroke-miterlimit:4;stroke-dasharray:none;stroke-opacity:1" />
      <path
         inkscape:connector-curvature="0"
         id="path4593"
         d="m 61.192112,127.99223 10.492853,-5.10749"
         style="fill:none;stroke:#000000;stroke-width:2.71501064;stroke-linecap:round;stroke-linejoin:round;stroke-miterlimit:4;stroke-dasharray:none;stroke-opacity:1" />
      <path
         inkscape:connector-curvature="0"
         id="path4595"
         d="m 49.897317,127.81341 -9.31931,-3.7455"
         style="fill:none;stroke:#000000;stroke-width:2.71501064;stroke-linecap:round;stroke-linejoin:round;stroke-miterlimit:4;stroke-dasharray:none;stroke-opacity:1" />
      <path
         sodipodi:nodetypes="cc"
         inkscape:connector-curvature="0"
         id="path4597"
         d="m 52.306497,145.39748 9.181245,-0.5448"
         style="fill:none;stroke:#000000;stroke-width:2.71501064;stroke-linecap:round;stroke-linejoin:round;stroke-miterlimit:4;stroke-dasharray:none;stroke-opacity:1" />
      <path
         sodipodi:nodetypes="cc"
         inkscape:connector-curvature="0"
         id="path4599"
         d="m 60.703091,116.48001 0.03164,6.73077"
         style="fill:#00ff66;stroke:#8b60ce;stroke-width:2.71501064;stroke-linecap:round;stroke-linejoin:round;stroke-miterlimit:4;stroke-dasharray:none;stroke-opacity:1" />
      <path
         sodipodi:nodetypes="cc"
         inkscape:connector-curvature="0"
         id="path4599-1"
         d="m 65.31576,114.26641 -0.01717,7.30862"
         style="fill:#00ff66;stroke:#8b60ce;stroke-width:2.71501064;stroke-linecap:round;stroke-linejoin:round;stroke-miterlimit:4;stroke-dasharray:none;stroke-opacity:1" />
      <path
         sodipodi:nodetypes="cc"
         inkscape:connector-curvature="0"
         id="path4599-2"
         d="m 69.926428,114.27024 0.05604,5.864"
         style="fill:#00ff66;stroke:#8b60ce;stroke-width:2.71501064;stroke-linecap:round;stroke-linejoin:round;stroke-miterlimit:4;stroke-dasharray:none;stroke-opacity:1" />
    </g>
    <path
       inkscape:connector-curvature="0"
       id="path1554"
       style="font-style:normal;font-variant:normal;font-weight:300;font-stretch:normal;font-size:19.30210686px;line-height:1.25;font-family:Ubuntu;-inkscape-font-specification:'Ubuntu Light';letter-spacing:0px;word-spacing:0px;fill:#000000;fill-opacity:1;stroke:none;stroke-width:0.48255268"
       d="m 75.460533,125.67272 q 0,1.17743 -0.347438,2.14253 -0.328136,0.96511 -0.945803,1.64068 -0.598366,0.67558 -1.428356,1.06162 -0.829991,0.36674 -1.8337,0.36674 -1.00371,0 -1.833701,-0.36674 -0.82999,-0.38604 -1.447658,-1.06162 -0.598365,-0.67557 -0.945803,-1.64068 -0.328136,-0.9651 -0.328136,-2.14253 0,-1.17743 0.328136,-2.14253 0.347438,-0.96511 0.945803,-1.64068 0.617668,-0.69488 1.447658,-1.06162 0.829991,-0.38604 1.833701,-0.38604 1.003709,0 1.8337,0.38604 0.82999,0.36674 1.428356,1.06162 0.617667,0.67557 0.945803,1.64068 0.347438,0.9651 0.347438,2.14253 z m -1.331846,0 q 0,-1.8723 -0.868594,-2.97252 -0.868595,-1.11953 -2.354857,-1.11953 -1.486263,0 -2.354857,1.11953 -0.868595,1.10022 -0.868595,2.97252 0,1.8723 0.868595,2.97253 0.868594,1.10022 2.354857,1.10022 1.486262,0 2.354857,-1.10022 0.868594,-1.10023 0.868594,-2.97253 z" />
    <path
       inkscape:connector-curvature="0"
       id="path1556"
       style="font-style:normal;font-variant:normal;font-weight:300;font-stretch:normal;font-size:19.30210686px;line-height:1.25;font-family:Ubuntu;-inkscape-font-specification:'Ubuntu Light';letter-spacing:0px;word-spacing:0px;fill:#000000;fill-opacity:1;stroke:none;stroke-width:0.48255268"
       d="m 78.182107,121.02091 q 0.559761,-0.15441 1.505565,-0.34744 0.945803,-0.19302 2.316253,-0.19302 1.138824,0 1.891606,0.32814 0.772084,0.32814 1.216033,0.9458 0.46325,0.59837 0.656271,1.44766 0.193021,0.84929 0.193021,1.87231 v 5.5783 H 84.70622 v -5.17296 q 0,-1.06162 -0.154417,-1.7951 -0.135115,-0.73348 -0.482553,-1.19673 -0.328136,-0.46325 -0.887897,-0.65627 -0.540459,-0.21232 -1.37045,-0.21232 -0.887896,0 -1.544168,0.0965 -0.63697,0.0965 -0.829991,0.17372 v 8.76315 h -1.254637 z" />
    <path
       inkscape:connector-curvature="0"
       id="path1558"
       style="font-style:normal;font-variant:normal;font-weight:300;font-stretch:normal;font-size:19.30210686px;line-height:1.25;font-family:Ubuntu;-inkscape-font-specification:'Ubuntu Light';letter-spacing:0px;word-spacing:0px;fill:#000000;fill-opacity:1;stroke:none;stroke-width:0.48255268"
       d="m 92.311218,129.74547 q 0.73348,0 1.273939,-0.0386 0.559761,-0.0579 0.945803,-0.13511 v -3.51299 q -0.212323,-0.0965 -0.675573,-0.19302 -0.463251,-0.11581 -1.273939,-0.11581 -0.463251,0 -0.965106,0.0772 -0.501855,0.0579 -0.926501,0.28953 -0.424646,0.21232 -0.694876,0.59836 -0.270229,0.38605 -0.270229,1.02302 0,0.55976 0.173719,0.9458 0.193021,0.38604 0.521157,0.61767 0.347437,0.23162 0.810688,0.34743 0.482553,0.0965 1.080918,0.0965 z m -0.115813,-9.30362 q 0.984408,0 1.659982,0.28953 0.694875,0.27023 1.119522,0.77209 0.424646,0.48255 0.617667,1.15812 0.193021,0.67558 0.193021,1.46696 v 6.29249 q -0.193021,0.0579 -0.559761,0.13511 -0.36674,0.0579 -0.849293,0.13512 -0.482552,0.0772 -1.080918,0.11581 -0.579063,0.0579 -1.19673,0.0579 -0.791387,0 -1.46696,-0.17372 -0.656272,-0.17372 -1.158127,-0.54046 -0.482552,-0.38604 -0.772084,-0.96511 -0.270229,-0.59836 -0.270229,-1.44765 0,-0.81069 0.308833,-1.38976 0.308834,-0.57906 0.868595,-0.9458 0.559761,-0.38604 1.331845,-0.55976 0.772085,-0.17372 1.679284,-0.17372 0.270229,0 0.559761,0.0386 0.308834,0.0193 0.579063,0.0772 0.289532,0.0386 0.482553,0.0965 0.212323,0.0386 0.289531,0.0772 v -0.61766 q 0,-0.52116 -0.07721,-1.00371 -0.07721,-0.50186 -0.347438,-0.8879 -0.250927,-0.40535 -0.73348,-0.63697 -0.463251,-0.25093 -1.235335,-0.25093 -1.10022,0 -1.640679,0.15442 -0.540459,0.15442 -0.791386,0.25093 l -0.173719,-1.10022 q 0.328135,-0.15442 1.003709,-0.28954 0.694876,-0.13511 1.659981,-0.13511 z" />
    <path
       inkscape:connector-curvature="0"
       id="path1560"
       style="font-style:normal;font-variant:normal;font-weight:300;font-stretch:normal;font-size:19.30210686px;line-height:1.25;font-family:Ubuntu;-inkscape-font-specification:'Ubuntu Light';letter-spacing:0px;word-spacing:0px;fill:#000000;fill-opacity:1;stroke:none;stroke-width:0.48255268"
       d="m 101.65341,125.22877 q 0.59837,0.40535 1.27394,1.04232 0.69488,0.63697 1.35115,1.38975 0.67557,0.73348 1.25464,1.52486 0.59836,0.77209 1.00371,1.46696 h -1.48626 q -0.46326,-0.77208 -1.06162,-1.50556 -0.57906,-0.75278 -1.23534,-1.40905 -0.63697,-0.65628 -1.29324,-1.19673 -0.63697,-0.54046 -1.21603,-0.9072 v 5.01854 h -1.254636 v -14.74681 l 1.254636,-0.23162 v 9.49664 q 0.48255,-0.46325 1.08092,-1.06162 0.59836,-0.59837 1.19673,-1.21603 0.61767,-0.61767 1.15813,-1.19673 0.54045,-0.57907 0.9265,-1.02302 h 1.50556 q -0.44395,0.46326 -1.00371,1.04232 -0.55976,0.57906 -1.17743,1.21603 -0.59836,0.61767 -1.19673,1.21603 -0.59836,0.59837 -1.08092,1.08092 z" />
    <path
       inkscape:connector-curvature="0"
       id="path1562"
       style="font-style:normal;font-variant:normal;font-weight:300;font-stretch:normal;font-size:19.30210686px;line-height:1.25;font-family:Ubuntu;-inkscape-font-specification:'Ubuntu Light';letter-spacing:0px;word-spacing:0px;fill:#000000;fill-opacity:1;stroke:none;stroke-width:0.48255268"
       d="m 111.69049,129.74547 q 0.73348,0 1.27394,-0.0386 0.55976,-0.0579 0.9458,-0.13511 v -3.51299 q -0.21232,-0.0965 -0.67557,-0.19302 -0.46325,-0.11581 -1.27394,-0.11581 -0.46325,0 -0.96511,0.0772 -0.50185,0.0579 -0.9265,0.28953 -0.42464,0.21232 -0.69487,0.59836 -0.27023,0.38605 -0.27023,1.02302 0,0.55976 0.17372,0.9458 0.19302,0.38604 0.52115,0.61767 0.34744,0.23162 0.81069,0.34743 0.48256,0.0965 1.08092,0.0965 z m -0.11581,-9.30362 q 0.98441,0 1.65998,0.28953 0.69487,0.27023 1.11952,0.77209 0.42465,0.48255 0.61767,1.15812 0.19302,0.67558 0.19302,1.46696 v 6.29249 q -0.19302,0.0579 -0.55976,0.13511 -0.36674,0.0579 -0.84929,0.13512 -0.48256,0.0772 -1.08092,0.11581 -0.57907,0.0579 -1.19673,0.0579 -0.79139,0 -1.46696,-0.17372 -0.65627,-0.17372 -1.15813,-0.54046 -0.48255,-0.38604 -0.77208,-0.96511 -0.27023,-0.59836 -0.27023,-1.44765 0,-0.81069 0.30883,-1.38976 0.30883,-0.57906 0.8686,-0.9458 0.55976,-0.38604 1.33184,-0.55976 0.77209,-0.17372 1.67928,-0.17372 0.27023,0 0.55977,0.0386 0.30883,0.0193 0.57906,0.0772 0.28953,0.0386 0.48255,0.0965 0.21232,0.0386 0.28953,0.0772 v -0.61766 q 0,-0.52116 -0.0772,-1.00371 -0.0772,-0.50186 -0.34743,-0.8879 -0.25093,-0.40535 -0.73348,-0.63697 -0.46325,-0.25093 -1.23534,-0.25093 -1.10022,0 -1.64068,0.15442 -0.54046,0.15442 -0.79138,0.25093 l -0.17372,-1.10022 q 0.32813,-0.15442 1.00371,-0.28954 0.69487,-0.13511 1.65998,-0.13511 z" />
    <path
       inkscape:connector-curvature="0"
       id="path1517"
       style="font-style:normal;font-variant:normal;font-weight:normal;font-stretch:normal;font-size:4.4703083px;line-height:1.25;font-family:Ubuntu;-inkscape-font-specification:Ubuntu;letter-spacing:0px;word-spacing:0px;fill:#000000;fill-opacity:1;stroke:none;stroke-width:0.11175771"
       d="m 72.960836,136.66735 q 0.04917,0.0224 0.125169,0.0402 0.08047,0.0223 0.156461,0.0223 0.245867,0 0.384446,-0.11176 0.13858,-0.10729 0.250337,-0.35315 -0.281629,-0.53644 -0.527496,-1.13546 -0.241397,-0.60349 -0.402328,-1.2204 h 0.447031 q 0.04917,0.20117 0.116228,0.43362 0.07153,0.23246 0.156461,0.47833 0.08494,0.24586 0.183282,0.49173 0.09835,0.24587 0.205635,0.47385 0.169871,-0.46938 0.29504,-0.92982 0.125169,-0.46044 0.236926,-0.94771 h 0.42915 q -0.160931,0.65714 -0.357625,1.2651 -0.196693,0.60349 -0.424679,1.13099 -0.08941,0.20116 -0.187753,0.34421 -0.09388,0.14752 -0.210104,0.2414 -0.116228,0.0939 -0.263749,0.13858 -0.14305,0.0447 -0.326332,0.0447 -0.04917,0 -0.102817,-0.009 -0.05364,-0.004 -0.107288,-0.0179 -0.04917,-0.009 -0.09388,-0.0223 -0.04023,-0.0134 -0.05811,-0.0223 z" />
    <path
       inkscape:connector-curvature="0"
       id="path1519"
       style="font-style:normal;font-variant:normal;font-weight:normal;font-stretch:normal;font-size:4.4703083px;line-height:1.25;font-family:Ubuntu;-inkscape-font-specification:Ubuntu;letter-spacing:0px;word-spacing:0px;fill:#000000;fill-opacity:1;stroke:none;stroke-width:0.11175771"
       d="m 77.507139,135.07145 q 0,0.27716 -0.08047,0.50068 -0.08047,0.22351 -0.227986,0.38445 -0.14305,0.16093 -0.344213,0.25033 -0.201164,0.0849 -0.438091,0.0849 -0.236926,0 -0.43809,-0.0849 -0.201164,-0.0894 -0.348684,-0.25033 -0.14305,-0.16094 -0.223515,-0.38445 -0.08047,-0.22352 -0.08047,-0.50068 0,-0.27268 0.08047,-0.4962 0.08047,-0.22799 0.223515,-0.38892 0.14752,-0.16093 0.348684,-0.24586 0.201164,-0.0894 0.43809,-0.0894 0.236927,0 0.438091,0.0894 0.201163,0.0849 0.344213,0.24586 0.14752,0.16093 0.227986,0.38892 0.08047,0.22352 0.08047,0.4962 z m -0.43362,0 q 0,-0.39338 -0.178813,-0.62137 -0.174342,-0.23245 -0.478323,-0.23245 -0.303981,0 -0.482793,0.23245 -0.174342,0.22799 -0.174342,0.62137 0,0.39339 0.174342,0.62585 0.178812,0.22798 0.482793,0.22798 0.303981,0 0.478323,-0.22798 0.178813,-0.23246 0.178813,-0.62585 z" />
    <path
       inkscape:connector-curvature="0"
       id="path1521"
       style="font-style:normal;font-variant:normal;font-weight:normal;font-stretch:normal;font-size:4.4703083px;line-height:1.25;font-family:Ubuntu;-inkscape-font-specification:Ubuntu;letter-spacing:0px;word-spacing:0px;fill:#000000;fill-opacity:1;stroke:none;stroke-width:0.11175771"
       d="m 79.943449,136.16668 q -0.14305,0.0358 -0.379976,0.076 -0.232456,0.0402 -0.540908,0.0402 -0.268218,0 -0.451501,-0.076 -0.183283,-0.0805 -0.29504,-0.22351 -0.111758,-0.14305 -0.160931,-0.33528 -0.04917,-0.19669 -0.04917,-0.43362 v -1.30533 h 0.415739 v 1.21593 q 0,0.42468 0.134109,0.60796 0.134109,0.18328 0.451501,0.18328 0.06705,0 0.13858,-0.004 0.07152,-0.004 0.134109,-0.009 0.06258,-0.009 0.111758,-0.0134 0.05364,-0.009 0.076,-0.0179 v -1.96247 h 0.415739 z" />
    <path
       inkscape:connector-curvature="0"
       id="path1523"
       style="font-style:normal;font-variant:normal;font-weight:normal;font-stretch:normal;font-size:4.4703083px;line-height:1.25;font-family:Ubuntu;-inkscape-font-specification:Ubuntu;letter-spacing:0px;word-spacing:0px;fill:#000000;fill-opacity:1;stroke:none;stroke-width:0.11175771"
       d="m 81.516995,133.86 q 0.05364,0 0.120698,0.009 0.07153,0.004 0.138579,0.0179 0.06705,0.009 0.120699,0.0223 0.05811,0.009 0.08494,0.0179 l -0.07153,0.36209 q -0.04917,-0.0179 -0.165402,-0.0402 -0.111757,-0.0268 -0.29057,-0.0268 -0.116228,0 -0.232456,0.0268 -0.111758,0.0223 -0.14752,0.0313 v 1.95352 h -0.415739 v -2.22621 q 0.147521,-0.0536 0.366566,-0.0984 0.219045,-0.0492 0.491735,-0.0492 z" />
    <path
       inkscape:connector-curvature="0"
       id="path1525"
       style="font-style:normal;font-variant:normal;font-weight:normal;font-stretch:normal;font-size:4.4703083px;line-height:1.25;font-family:Ubuntu;-inkscape-font-specification:Ubuntu;letter-spacing:0px;word-spacing:0px;fill:#000000;fill-opacity:1;stroke:none;stroke-width:0.11175771"
       d="m 85.468741,135.07145 q 0,0.27716 -0.08046,0.50068 -0.08047,0.22351 -0.227986,0.38445 -0.14305,0.16093 -0.344214,0.25033 -0.201164,0.0849 -0.43809,0.0849 -0.236926,0 -0.43809,-0.0849 -0.201164,-0.0894 -0.348684,-0.25033 -0.14305,-0.16094 -0.223516,-0.38445 -0.08046,-0.22352 -0.08046,-0.50068 0,-0.27268 0.08046,-0.4962 0.08047,-0.22799 0.223516,-0.38892 0.14752,-0.16093 0.348684,-0.24586 0.201164,-0.0894 0.43809,-0.0894 0.236926,0 0.43809,0.0894 0.201164,0.0849 0.344214,0.24586 0.14752,0.16093 0.227986,0.38892 0.08046,0.22352 0.08046,0.4962 z m -0.43362,0 q 0,-0.39338 -0.178812,-0.62137 -0.174342,-0.23245 -0.478323,-0.23245 -0.303981,0 -0.482793,0.23245 -0.174342,0.22799 -0.174342,0.62137 0,0.39339 0.174342,0.62585 0.178812,0.22798 0.482793,0.22798 0.303981,0 0.478323,-0.22798 0.178812,-0.23246 0.178812,-0.62585 z" />
    <path
       inkscape:connector-curvature="0"
       id="path1527"
       style="font-style:normal;font-variant:normal;font-weight:normal;font-stretch:normal;font-size:4.4703083px;line-height:1.25;font-family:Ubuntu;-inkscape-font-specification:Ubuntu;letter-spacing:0px;word-spacing:0px;fill:#000000;fill-opacity:1;stroke:none;stroke-width:0.11175771"
       d="m 86.054344,133.97623 q 0.14305,-0.0358 0.379976,-0.076 0.236926,-0.0402 0.545378,-0.0402 0.277159,0 0.460441,0.0805 0.183283,0.076 0.29057,0.21904 0.111758,0.13858 0.156461,0.33527 0.0447,0.1967 0.0447,0.43362 v 1.30533 h -0.415738 v -1.21592 q 0,-0.21457 -0.03129,-0.36657 -0.02682,-0.15199 -0.09388,-0.24586 -0.06706,-0.0939 -0.178812,-0.13411 -0.111758,-0.0447 -0.277159,-0.0447 -0.06705,0 -0.13858,0.004 -0.07152,0.004 -0.13858,0.0134 -0.06258,0.004 -0.116228,0.0134 -0.04917,0.009 -0.07152,0.0134 v 1.96246 h -0.415739 z" />
    <path
       inkscape:connector-curvature="0"
       id="path1529"
       style="font-style:normal;font-variant:normal;font-weight:normal;font-stretch:normal;font-size:4.4703083px;line-height:1.25;font-family:Ubuntu;-inkscape-font-specification:Ubuntu;letter-spacing:0px;word-spacing:0px;fill:#000000;fill-opacity:1;stroke:none;stroke-width:0.11175771"
       d="m 89.407072,135.93422 q 0.14752,0 0.259278,-0.004 0.116228,-0.009 0.192223,-0.0268 v -0.6929 q -0.0447,-0.0223 -0.14752,-0.0358 -0.09835,-0.0179 -0.241396,-0.0179 -0.09388,0 -0.201164,0.0134 -0.102817,0.0134 -0.192224,0.0581 -0.08494,0.0402 -0.143049,0.11623 -0.05811,0.0715 -0.05811,0.19223 0,0.22351 0.143049,0.31292 0.14305,0.0849 0.388917,0.0849 z m -0.03576,-2.08316 q 0.250337,0 0.420209,0.0671 0.174342,0.0626 0.277159,0.18329 0.107287,0.11623 0.15199,0.28163 0.0447,0.16093 0.0447,0.35762 v 1.45285 q -0.05364,0.009 -0.15199,0.0268 -0.09388,0.0134 -0.214575,0.0268 -0.120698,0.0134 -0.263748,0.0223 -0.13858,0.0134 -0.277159,0.0134 -0.196694,0 -0.362095,-0.0402 -0.165401,-0.0402 -0.2861,-0.12516 -0.120698,-0.0894 -0.187753,-0.23246 -0.06705,-0.14305 -0.06705,-0.34421 0,-0.19223 0.07599,-0.33081 0.08047,-0.13858 0.214575,-0.22351 0.134109,-0.0849 0.312921,-0.12517 0.178813,-0.0402 0.375506,-0.0402 0.06258,0 0.129639,0.009 0.06705,0.004 0.125169,0.0179 0.06258,0.009 0.107287,0.0179 0.0447,0.009 0.06258,0.0134 V 134.763 q 0,-0.10281 -0.02235,-0.20116 -0.02235,-0.10282 -0.08047,-0.17881 -0.05811,-0.0805 -0.160931,-0.12517 -0.09835,-0.0492 -0.259278,-0.0492 -0.205634,0 -0.362095,0.0313 -0.15199,0.0268 -0.227985,0.0581 l -0.04917,-0.34421 q 0.08047,-0.0358 0.268219,-0.0671 0.187753,-0.0358 0.406798,-0.0358 z" />
    <path
       inkscape:connector-curvature="0"
       id="path1531"
       style="font-style:normal;font-variant:normal;font-weight:normal;font-stretch:normal;font-size:4.4703083px;line-height:1.25;font-family:Ubuntu;-inkscape-font-specification:Ubuntu;letter-spacing:0px;word-spacing:0px;fill:#000000;fill-opacity:1;stroke:none;stroke-width:0.11175771"
       d="m 91.794213,134.95523 q 0.134109,0.10281 0.281629,0.2548 0.151991,0.15199 0.295041,0.33081 0.14752,0.17434 0.277159,0.35762 0.129639,0.17881 0.219045,0.33527 h -0.487264 q -0.09388,-0.15646 -0.219045,-0.31739 -0.120698,-0.1654 -0.254807,-0.31292 -0.134109,-0.15199 -0.272689,-0.27716 -0.13858,-0.12517 -0.263748,-0.2101 v 1.11757 h -0.415739 v -3.39743 l 0.415739,-0.0715 v 2.11893 q 0.107287,-0.10729 0.236926,-0.23693 0.129639,-0.12963 0.254808,-0.26374 0.125168,-0.13411 0.236926,-0.25481 0.111758,-0.12517 0.192223,-0.21905 h 0.487264 q -0.102817,0.11176 -0.223516,0.24587 -0.120698,0.13411 -0.250337,0.27269 -0.129639,0.13411 -0.263748,0.27269 -0.129639,0.13411 -0.245867,0.25481 z" />
    <path
       inkscape:connector-curvature="0"
       id="path1533"
       style="font-style:normal;font-variant:normal;font-weight:normal;font-stretch:normal;font-size:4.4703083px;line-height:1.25;font-family:Ubuntu;-inkscape-font-specification:Ubuntu;letter-spacing:0px;word-spacing:0px;fill:#000000;fill-opacity:1;stroke:none;stroke-width:0.11175771"
       d="m 94.074067,135.93422 q 0.147521,0 0.259278,-0.004 0.116228,-0.009 0.192223,-0.0268 v -0.6929 q -0.0447,-0.0223 -0.14752,-0.0358 -0.09835,-0.0179 -0.241396,-0.0179 -0.09388,0 -0.201164,0.0134 -0.102817,0.0134 -0.192223,0.0581 -0.08494,0.0402 -0.14305,0.11623 -0.05811,0.0715 -0.05811,0.19223 0,0.22351 0.14305,0.31292 0.143049,0.0849 0.388916,0.0849 z m -0.03576,-2.08316 q 0.250337,0 0.420209,0.0671 0.174342,0.0626 0.277159,0.18329 0.107287,0.11623 0.15199,0.28163 0.0447,0.16093 0.0447,0.35762 v 1.45285 q -0.05364,0.009 -0.151991,0.0268 -0.09388,0.0134 -0.214575,0.0268 -0.120698,0.0134 -0.263748,0.0223 -0.138579,0.0134 -0.277159,0.0134 -0.196694,0 -0.362095,-0.0402 -0.165401,-0.0402 -0.2861,-0.12516 -0.120698,-0.0894 -0.187753,-0.23246 -0.06705,-0.14305 -0.06705,-0.34421 0,-0.19223 0.07599,-0.33081 0.08047,-0.13858 0.214575,-0.22351 0.134109,-0.0849 0.312921,-0.12517 0.178813,-0.0402 0.375506,-0.0402 0.06258,0 0.129639,0.009 0.06705,0.004 0.125169,0.0179 0.06258,0.009 0.107287,0.0179 0.0447,0.009 0.06258,0.0134 V 134.763 q 0,-0.10281 -0.02235,-0.20116 -0.02235,-0.10282 -0.08047,-0.17881 -0.05811,-0.0805 -0.160931,-0.12517 -0.09835,-0.0492 -0.259278,-0.0492 -0.205634,0 -0.362095,0.0313 -0.15199,0.0268 -0.227985,0.0581 l -0.04917,-0.34421 q 0.08047,-0.0358 0.268219,-0.0671 0.187753,-0.0358 0.406798,-0.0358 z" />
    <path
       inkscape:connector-curvature="0"
       id="path1535"
       style="font-style:normal;font-variant:normal;font-weight:normal;font-stretch:normal;font-size:4.4703083px;line-height:1.25;font-family:Ubuntu;-inkscape-font-specification:Ubuntu;letter-spacing:0px;word-spacing:0px;fill:#000000;fill-opacity:1;stroke:none;stroke-width:0.11175771"
       d="m 97.069166,136.23373 h -0.415738 v -2.32456 h 0.415738 z m -0.210104,-2.74477 q -0.111758,0 -0.192223,-0.0715 -0.076,-0.076 -0.076,-0.20116 0,-0.12517 0.076,-0.1967 0.08047,-0.076 0.192223,-0.076 0.111758,0 0.187753,0.076 0.08047,0.0715 0.08047,0.1967 0,0.12516 -0.08047,0.20116 -0.07599,0.0715 -0.187753,0.0715 z" />
    <path
       inkscape:connector-curvature="0"
       id="path1537"
       style="font-style:normal;font-variant:normal;font-weight:normal;font-stretch:normal;font-size:4.4703083px;line-height:1.25;font-family:Ubuntu;-inkscape-font-specification:Ubuntu;letter-spacing:0px;word-spacing:0px;fill:#000000;fill-opacity:1;stroke:none;stroke-width:0.11175771"
       d="m 97.784409,133.97623 q 0.14305,-0.0358 0.379976,-0.076 0.236927,-0.0402 0.545378,-0.0402 0.277159,0 0.460442,0.0805 0.183282,0.076 0.29057,0.21904 0.111758,0.13858 0.156461,0.33527 0.0447,0.1967 0.0447,0.43362 v 1.30533 H 99.2462 v -1.21592 q 0,-0.21457 -0.03129,-0.36657 -0.02682,-0.15199 -0.09388,-0.24586 -0.06705,-0.0939 -0.178812,-0.13411 -0.111758,-0.0447 -0.277159,-0.0447 -0.06705,0 -0.13858,0.004 -0.07153,0.004 -0.138579,0.0134 -0.06258,0.004 -0.116228,0.0134 -0.04917,0.009 -0.07153,0.0134 v 1.96246 h -0.415739 z" />
    <path
       inkscape:connector-curvature="0"
       id="path1539"
       style="font-style:normal;font-variant:normal;font-weight:normal;font-stretch:normal;font-size:4.4703083px;line-height:1.25;font-family:Ubuntu;-inkscape-font-specification:Ubuntu;letter-spacing:0px;word-spacing:0px;fill:#000000;fill-opacity:1;stroke:none;stroke-width:0.11175771"
       d="m 100.89127,135.93422 q 0.25481,0 0.37551,-0.0671 0.12517,-0.0671 0.12517,-0.21458 0,-0.15199 -0.1207,-0.24139 -0.1207,-0.0894 -0.39786,-0.20117 -0.13411,-0.0536 -0.25928,-0.10728 -0.1207,-0.0581 -0.2101,-0.13411 -0.0894,-0.076 -0.14305,-0.18329 -0.0536,-0.10728 -0.0536,-0.26374 0,-0.30846 0.22799,-0.48727 0.22798,-0.18328 0.62137,-0.18328 0.0983,0 0.1967,0.0134 0.0983,0.009 0.18328,0.0268 0.0849,0.0134 0.14752,0.0313 0.067,0.0179 0.10282,0.0313 l -0.076,0.35762 q -0.067,-0.0358 -0.2101,-0.0715 -0.14305,-0.0402 -0.34422,-0.0402 -0.17434,0 -0.30398,0.0715 -0.12964,0.0671 -0.12964,0.21457 0,0.076 0.0268,0.13411 0.0313,0.0581 0.0894,0.10729 0.0626,0.0447 0.15199,0.0849 0.0894,0.0402 0.21458,0.0849 0.1654,0.0626 0.29504,0.12517 0.12963,0.0581 0.21904,0.13858 0.0939,0.0805 0.14305,0.19669 0.0492,0.11176 0.0492,0.27716 0,0.32187 -0.24139,0.48727 -0.23693,0.1654 -0.67949,0.1654 -0.30845,0 -0.48279,-0.0537 -0.17434,-0.0492 -0.23693,-0.076 l 0.076,-0.35763 q 0.0715,0.0268 0.22798,0.0805 0.15646,0.0536 0.41574,0.0536 z" />
    <path
       inkscape:connector-curvature="0"
       id="path1541"
       style="font-style:normal;font-variant:normal;font-weight:normal;font-stretch:normal;font-size:4.4703083px;line-height:1.25;font-family:Ubuntu;-inkscape-font-specification:Ubuntu;letter-spacing:0px;word-spacing:0px;fill:#000000;fill-opacity:1;stroke:none;stroke-width:0.11175771"
       d="m 103.9579,135.07592 q 0,-0.40679 -0.20117,-0.62584 -0.20116,-0.21904 -0.53643,-0.21904 -0.18776,0 -0.29504,0.0134 -0.10282,0.0134 -0.1654,0.0313 v 1.46626 q 0.076,0.0626 0.21904,0.1207 0.14305,0.0581 0.31292,0.0581 0.17881,0 0.30398,-0.0626 0.12964,-0.0671 0.21011,-0.17881 0.0805,-0.11623 0.11623,-0.26822 0.0358,-0.15646 0.0358,-0.33528 z m 0.43362,0 q 0,0.26375 -0.0715,0.48727 -0.0671,0.22351 -0.20116,0.38444 -0.13411,0.16094 -0.3308,0.25034 -0.19223,0.0894 -0.44256,0.0894 -0.20117,0 -0.35763,-0.0537 -0.15199,-0.0536 -0.22798,-0.10281 v 0.92982 h -0.41574 v -3.08004 q 0.14752,-0.0358 0.36656,-0.076 0.22352,-0.0447 0.51409,-0.0447 0.26822,0 0.48279,0.0849 0.21458,0.0849 0.36657,0.24139 0.15199,0.15646 0.23245,0.38445 0.0849,0.22351 0.0849,0.50514 z" />
    <path
       inkscape:connector-curvature="0"
       id="path1543"
       style="font-style:normal;font-variant:normal;font-weight:normal;font-stretch:normal;font-size:4.4703083px;line-height:1.25;font-family:Ubuntu;-inkscape-font-specification:Ubuntu;letter-spacing:0px;word-spacing:0px;fill:#000000;fill-opacity:1;stroke:none;stroke-width:0.11175771"
       d="m 104.84748,135.07592 q 0,-0.30845 0.0894,-0.53643 0.0894,-0.23246 0.23693,-0.38445 0.14752,-0.15199 0.33974,-0.22798 0.19222,-0.076 0.39339,-0.076 0.46938,0 0.71972,0.29504 0.25033,0.29057 0.25033,0.88959 0,0.0268 0,0.0715 0,0.0402 -0.004,0.076 h -1.59143 q 0.0268,0.3621 0.21011,0.54985 0.18328,0.18775 0.5722,0.18775 0.21904,0 0.36656,-0.0358 0.15199,-0.0402 0.22799,-0.076 l 0.0581,0.34869 q -0.076,0.0402 -0.26821,0.0849 -0.18776,0.0447 -0.42915,0.0447 -0.30399,0 -0.5275,-0.0894 -0.21905,-0.0939 -0.3621,-0.25481 -0.14305,-0.16093 -0.21457,-0.37997 -0.0671,-0.22352 -0.0671,-0.48727 z m 1.5959,-0.22798 q 0.004,-0.28163 -0.14304,-0.46044 -0.14305,-0.18329 -0.39786,-0.18329 -0.14305,0 -0.25481,0.0581 -0.10729,0.0536 -0.18328,0.14305 -0.076,0.0894 -0.1207,0.20563 -0.0402,0.11623 -0.0536,0.23693 z" />
    <path
       inkscape:connector-curvature="0"
       id="path1545"
       style="font-style:normal;font-variant:normal;font-weight:normal;font-stretch:normal;font-size:4.4703083px;line-height:1.25;font-family:Ubuntu;-inkscape-font-specification:Ubuntu;letter-spacing:0px;word-spacing:0px;fill:#000000;fill-opacity:1;stroke:none;stroke-width:0.11175771"
       d="m 108.48631,136.28738 q -0.28163,0 -0.49621,-0.0894 -0.2101,-0.0894 -0.35762,-0.25034 -0.14305,-0.16093 -0.21458,-0.37997 -0.0715,-0.22352 -0.0715,-0.49174 0,-0.26821 0.076,-0.49173 0.0805,-0.22352 0.22352,-0.38445 0.14305,-0.1654 0.34868,-0.2548 0.21011,-0.0939 0.46492,-0.0939 0.15646,0 0.31292,0.0268 0.15646,0.0268 0.29951,0.0849 l -0.0939,0.35315 q -0.0939,-0.0447 -0.21904,-0.0715 -0.1207,-0.0268 -0.25928,-0.0268 -0.34869,0 -0.53644,0.21904 -0.18328,0.21905 -0.18328,0.63925 0,0.18776 0.0402,0.34422 0.0447,0.15646 0.13411,0.26822 0.0939,0.11175 0.23693,0.17434 0.14305,0.0581 0.34868,0.0581 0.1654,0 0.29951,-0.0313 0.13411,-0.0313 0.21011,-0.067 l 0.0581,0.34868 q -0.0358,0.0223 -0.10282,0.0447 -0.067,0.0179 -0.15199,0.0313 -0.0849,0.0179 -0.18328,0.0268 -0.0939,0.0134 -0.18328,0.0134 z" />
    <path
       inkscape:connector-curvature="0"
       id="path1547"
       style="font-style:normal;font-variant:normal;font-weight:normal;font-stretch:normal;font-size:4.4703083px;line-height:1.25;font-family:Ubuntu;-inkscape-font-specification:Ubuntu;letter-spacing:0px;word-spacing:0px;fill:#000000;fill-opacity:1;stroke:none;stroke-width:0.11175771"
       d="m 109.94362,133.90917 h 0.88065 v 0.34869 h -0.88065 v 1.07287 q 0,0.17434 0.0268,0.29057 0.0268,0.11176 0.0805,0.17881 0.0536,0.0626 0.13411,0.0894 0.0805,0.0268 0.18775,0.0268 0.18775,0 0.29951,-0.0402 0.11623,-0.0447 0.16093,-0.0626 l 0.0805,0.34421 q -0.0626,0.0313 -0.21905,0.076 -0.15646,0.0492 -0.35762,0.0492 -0.23693,0 -0.39339,-0.0581 -0.15199,-0.0626 -0.24587,-0.18328 -0.0939,-0.1207 -0.13411,-0.29504 -0.0358,-0.17881 -0.0358,-0.41127 v -2.07422 l 0.41574,-0.0715 z" />
    <path
       inkscape:connector-curvature="0"
       id="path1549"
       style="font-style:normal;font-variant:normal;font-weight:normal;font-stretch:normal;font-size:4.4703083px;line-height:1.25;font-family:Ubuntu;-inkscape-font-specification:Ubuntu;letter-spacing:0px;word-spacing:0px;fill:#000000;fill-opacity:1;stroke:none;stroke-width:0.11175771"
       d="m 113.34104,135.07145 q 0,0.27716 -0.0805,0.50068 -0.0805,0.22351 -0.22798,0.38445 -0.14305,0.16093 -0.34422,0.25033 -0.20116,0.0849 -0.43809,0.0849 -0.23692,0 -0.43809,-0.0849 -0.20116,-0.0894 -0.34868,-0.25033 -0.14305,-0.16094 -0.22352,-0.38445 -0.0805,-0.22352 -0.0805,-0.50068 0,-0.27268 0.0805,-0.4962 0.0805,-0.22799 0.22352,-0.38892 0.14752,-0.16093 0.34868,-0.24586 0.20117,-0.0894 0.43809,-0.0894 0.23693,0 0.43809,0.0894 0.20117,0.0849 0.34422,0.24586 0.14752,0.16093 0.22798,0.38892 0.0805,0.22352 0.0805,0.4962 z m -0.43362,0 q 0,-0.39338 -0.17881,-0.62137 -0.17435,-0.23245 -0.47833,-0.23245 -0.30398,0 -0.48279,0.23245 -0.17434,0.22799 -0.17434,0.62137 0,0.39339 0.17434,0.62585 0.17881,0.22798 0.48279,0.22798 0.30398,0 0.47833,-0.22798 0.17881,-0.23246 0.17881,-0.62585 z" />
    <path
       inkscape:connector-curvature="0"
       id="path1551"
       style="font-style:normal;font-variant:normal;font-weight:normal;font-stretch:normal;font-size:4.4703083px;line-height:1.25;font-family:Ubuntu;-inkscape-font-specification:Ubuntu;letter-spacing:0px;word-spacing:0px;fill:#000000;fill-opacity:1;stroke:none;stroke-width:0.11175771"
       d="m 114.78494,133.86 q 0.0536,0 0.1207,0.009 0.0715,0.004 0.13858,0.0179 0.0671,0.009 0.1207,0.0223 0.0581,0.009 0.0849,0.0179 l -0.0715,0.36209 q -0.0492,-0.0179 -0.1654,-0.0402 -0.11176,-0.0268 -0.29057,-0.0268 -0.11623,0 -0.23246,0.0268 -0.11176,0.0223 -0.14752,0.0313 v 1.95352 h -0.41574 v -2.22621 q 0.14752,-0.0536 0.36657,-0.0984 0.21904,-0.0492 0.49173,-0.0492 z" />
  </g>
</svg>
